<svg preserveAspectRatio="none" width="100%" height="100%" overflow="visible" style="display: block;" viewBox="0 0 16 18" fill="none" xmlns="http://www.w3.org/2000/svg">
<path id="Vector" d="M0.880344 9.12847L1.48425 11.3823C2.18921 14.0132 2.54169 15.3287 3.34076 16.1819C3.97171 16.8555 4.78824 17.3269 5.68711 17.5365C6.82551 17.802 8.14097 17.4495 10.7719 16.7445L10.7719 16.7445C13.4028 16.0396 14.7183 15.6871 15.5715 14.888C15.6423 14.8217 15.7109 14.7533 15.7771 14.683C15.3872 14.6503 14.994 14.5875 14.5943 14.5081C13.7822 14.3466 12.8172 14.088 11.676 13.7822L11.5514 13.7488L11.5225 13.7411C10.2807 13.4084 9.24328 13.1298 8.4149 12.8306C7.54375 12.5159 6.7522 12.1279 6.08006 11.4984C5.15379 10.6308 4.50558 9.50811 4.2174 8.27217C4.00828 7.3753 4.06807 6.49582 4.23111 5.58404C4.38735 4.71029 4.66795 3.66317 5.00414 2.4086L5.00414 2.4086L5.62759 0.081831L5.64952 0C3.40888 0.603587 2.22951 0.960693 1.44301 1.69733C0.769362 2.32827 0.297936 3.14481 0.0883492 4.04367C-0.177089 5.18208 0.175389 6.49754 0.880344 9.12847Z" fill="var(--fill-0, #FBFF5C)"/>
</svg>
