<svg preserveAspectRatio="none" width="100%" height="100%" overflow="visible" style="display: block;" viewBox="0 0 18 19" fill="none" xmlns="http://www.w3.org/2000/svg">
<path id="Vector" fill-rule="evenodd" clip-rule="evenodd" d="M16.1341 10.168L15.5302 12.4218C14.8253 15.0527 14.4728 16.3682 13.6737 17.2214C13.0428 17.895 12.2262 18.3665 11.3274 18.576C11.2151 18.6022 11.101 18.6224 10.9842 18.6368C9.91659 18.7685 8.61393 18.4194 6.24257 17.784C3.61165 17.0791 2.29618 16.7266 1.44301 15.9275C0.769361 15.2966 0.297936 14.4801 0.0883493 13.5812C-0.177089 12.4428 0.175388 11.1273 0.880343 8.4964L1.48425 6.24257C1.58561 5.86429 1.67975 5.51297 1.76891 5.18655C2.29983 3.24283 2.65661 2.17348 3.34076 1.44301C3.97171 0.769362 4.78824 0.297936 5.68711 0.0883492C6.82551 -0.177089 8.14098 0.175389 10.7719 0.880343C13.4028 1.5853 14.7183 1.93778 15.5715 2.73685C16.2451 3.3678 16.7165 4.18433 16.9261 5.0832C17.1916 6.2216 16.8391 7.53706 16.1341 10.168ZM4.72781 9.10687C4.85289 8.64008 5.33268 8.36307 5.79947 8.48815L11.434 9.99793C11.9008 10.123 12.1778 10.6028 12.0528 11.0696C11.9277 11.5364 11.4479 11.8134 10.9811 11.6883L5.34653 10.1785C4.87975 10.0534 4.60274 9.57365 4.72781 9.10687ZM3.82148 12.4872C3.94656 12.0205 4.42635 11.7434 4.89313 11.8685L8.27387 12.7744C8.74066 12.8995 9.01767 13.3793 8.89259 13.846C8.76752 14.3128 8.28772 14.5898 7.82094 14.4648L4.4402 13.5589C3.97342 13.4338 3.69641 12.954 3.82148 12.4872Z" fill="var(--fill-0, #FBFF5C)"/>
</svg>
