<svg preserveAspectRatio="none" width="100%" height="100%" overflow="visible" style="display: block;" viewBox="0 0 23 26" fill="none" xmlns="http://www.w3.org/2000/svg">
<path id="Vector" fill-rule="evenodd" clip-rule="evenodd" d="M19.436 3.11726C18.2531 1.90921 16.5661 1.4636 14.9147 1.93351C14.4499 2.06577 13.9659 1.79618 13.8336 1.33138C13.7014 0.866585 13.9709 0.382577 14.4357 0.250323C16.6969 -0.393082 19.0495 0.221193 20.6864 1.89292C21.0245 2.2382 21.0186 2.79219 20.6733 3.13028C20.3281 3.46838 19.7741 3.46255 19.436 3.11726ZM10.4344 2.40145C10.1847 1.9732 9.45689 1.71348 8.71761 2.13599C7.98103 2.55695 7.85148 3.299 8.09686 3.7198L11.0435 8.77278C11.2869 9.19023 11.1458 9.72599 10.7284 9.96942C10.3109 10.2129 9.77516 10.0718 9.53172 9.65433L6.58513 4.60136C6.58498 4.60111 6.58527 4.60162 6.58513 4.60136L5.60293 2.91704C5.35319 2.48878 4.62541 2.22906 3.88613 2.65158C3.14955 3.07254 3.02 3.81459 3.26538 4.23539L7.68528 11.8148C7.92872 12.2323 7.78765 12.7681 7.37019 13.0115C6.95274 13.2549 6.41698 13.1139 6.17354 12.6964L4.20914 9.32776C3.95941 8.8995 3.23163 8.63978 2.49234 9.06229C1.75576 9.48326 1.62621 10.2253 1.8716 10.6461L6.2915 18.2256C8.1686 21.4445 12.8007 22.4891 16.7288 20.2441C20.6542 18.0007 22.0496 13.519 20.1769 10.3075L17.2303 5.25452C16.9806 4.82626 16.2528 4.56654 15.5135 4.98905C14.7769 5.41002 14.6474 6.15206 14.8927 6.57287L16.8571 9.94151C16.9747 10.1431 17.0069 10.3834 16.9465 10.6088C16.886 10.8342 16.7381 11.0262 16.5354 11.142C14.7359 12.1704 14.1844 14.159 14.9723 15.5101C15.2157 15.9275 15.0746 16.4633 14.6572 16.7067C14.2397 16.9502 13.704 16.8091 13.4605 16.3916C12.2247 14.2725 13.0026 11.6513 14.9344 10.1183L10.4344 2.40145ZM13.6173 4.38569L11.9461 1.5199C11.111 0.0876984 9.23588 -0.175845 7.84927 0.61662C7.42193 0.86085 7.05845 1.19563 6.7844 1.58405C5.85101 0.556349 4.24354 0.431674 3.01779 1.13221C1.62847 1.92622 0.914126 3.6773 1.75365 5.11695L2.92284 7.12194C2.47363 7.17074 2.02808 7.31199 1.62401 7.54292C0.234686 8.33694 -0.479656 10.088 0.359864 11.5277L4.77976 19.1071C7.2423 23.33 13.0217 24.3784 17.5972 21.7635C22.1753 19.147 24.1555 13.6563 21.6886 9.42593L18.742 4.37296C17.9069 2.94076 16.0318 2.67722 14.6451 3.46968C14.2368 3.70307 13.8867 4.01914 13.6173 4.38569ZM2.52866 19.3772C2.94612 19.1338 3.48188 19.2748 3.72531 19.6923C4.68999 21.3466 6.16476 22.5976 7.98345 23.4093C8.42474 23.6062 8.62282 24.1236 8.42586 24.5649C8.22891 25.0062 7.71151 25.2043 7.27022 25.0073C5.15679 24.0641 3.38368 22.5804 2.21357 20.5739C1.97014 20.1564 2.11121 19.6206 2.52866 19.3772Z" fill="var(--fill-0, #1C274C)"/>
</svg>
