<svg preserveAspectRatio="none" width="100%" height="100%" overflow="visible" style="display: block;" viewBox="0 0 14 14" fill="none" xmlns="http://www.w3.org/2000/svg">
<path id="Subtract" fill-rule="evenodd" clip-rule="evenodd" d="M5.0616 0.800181C4.89925 0.938536 4.81807 1.00772 4.73137 1.06583C4.53264 1.19903 4.30945 1.29148 4.07473 1.33782C3.97234 1.35803 3.86602 1.36651 3.65339 1.38348C3.11913 1.42612 2.852 1.44743 2.62914 1.52615C2.11367 1.70822 1.70822 2.11367 1.52615 2.62914C1.44743 2.852 1.42612 3.11913 1.38348 3.65339C1.36651 3.86602 1.35803 3.97234 1.33782 4.07473C1.29148 4.30945 1.19903 4.53264 1.06583 4.73137C1.00772 4.81807 0.938539 4.89925 0.800181 5.0616C0.452556 5.46952 0.278736 5.67349 0.17681 5.88674C-0.0589368 6.37997 -0.0589368 6.95336 0.17681 7.4466C0.278737 7.65985 0.452552 7.86381 0.800181 8.27173C0.938523 8.43407 1.00772 8.51527 1.06583 8.60196C1.19903 8.80069 1.29148 9.02388 1.33782 9.2586C1.35803 9.36099 1.36651 9.46731 1.38348 9.67995C1.42612 10.2142 1.44743 10.4813 1.52615 10.7042C1.70822 11.2197 2.11367 11.6251 2.62914 11.8072C2.852 11.8859 3.11913 11.9072 3.65339 11.9499C3.86602 11.9668 3.97234 11.9753 4.07473 11.9955C4.30945 12.0419 4.53264 12.1343 4.73137 12.2675C4.81807 12.3256 4.89925 12.3948 5.0616 12.5332C5.46953 12.8808 5.67349 13.0546 5.88674 13.1565C6.37997 13.3923 6.95336 13.3923 7.4466 13.1565C7.65985 13.0546 7.86381 12.8808 8.27173 12.5332C8.43409 12.3948 8.51526 12.3256 8.60196 12.2675C8.8007 12.1343 9.02388 12.0419 9.2586 11.9955C9.36099 11.9753 9.46731 11.9668 9.67995 11.9499C10.2142 11.9072 10.4813 11.8859 10.7042 11.8072C11.2197 11.6251 11.6251 11.2197 11.8072 10.7042C11.8859 10.4813 11.9072 10.2142 11.9499 9.67995C11.9668 9.46731 11.9753 9.36099 11.9955 9.2586C12.0419 9.02388 12.1343 8.8007 12.2675 8.60196C12.3256 8.51526 12.3948 8.43408 12.5332 8.27173C12.8808 7.86381 13.0546 7.65985 13.1565 7.4466C13.3923 6.95336 13.3923 6.37997 13.1565 5.88674C13.0546 5.67349 12.8808 5.46953 12.5332 5.0616C12.3948 4.89925 12.3256 4.81807 12.2675 4.73137C12.1343 4.53264 12.0419 4.30945 11.9955 4.07473C11.9753 3.97234 11.9668 3.86602 11.9499 3.65339C11.9072 3.11913 11.8859 2.852 11.8072 2.62914C11.6251 2.11367 11.2197 1.70822 10.7042 1.52615C10.4813 1.44743 10.2142 1.42612 9.67995 1.38348C9.46731 1.36651 9.36099 1.35803 9.2586 1.33782C9.02388 1.29148 8.80069 1.19903 8.60196 1.06583C8.51526 1.00772 8.43408 0.938539 8.27173 0.800181C7.86381 0.452552 7.65985 0.278737 7.4466 0.17681C6.95336 -0.0589368 6.37997 -0.0589368 5.88674 0.17681C5.67349 0.278736 5.46952 0.452555 5.0616 0.800181ZM9.58232 5.24209C9.79421 5.0302 9.79421 4.68666 9.58232 4.47478C9.37044 4.26289 9.0269 4.26289 8.81501 4.47478L5.58151 7.70827L4.51831 6.64507C4.30642 6.43318 3.96288 6.43318 3.75099 6.64507C3.5391 6.85696 3.5391 7.2005 3.75099 7.41238L5.19785 8.85925C5.40974 9.07113 5.75328 9.07113 5.96517 8.85925L9.58232 5.24209Z" fill="var(--fill-0, #FBFF5C)"/>
</svg>
