<svg preserveAspectRatio="none" width="100%" height="100%" overflow="visible" style="display: block;" viewBox="0 0 18 18" fill="none" xmlns="http://www.w3.org/2000/svg">
<path id="Vector" fill-rule="evenodd" clip-rule="evenodd" d="M2.5 6.05386C2.5 2.66887 5.43455 0 8.95833 0C12.4821 0 15.4167 2.66887 15.4167 6.05386C15.4167 9.22982 13.4476 12.9584 10.2707 14.316C9.43663 14.6724 8.48004 14.6724 7.64601 14.316C4.46907 12.9584 2.5 9.22982 2.5 6.05386ZM8.95833 1.25C6.03879 1.25 3.75 3.4423 3.75 6.05386C3.75 8.82748 5.50453 12.0415 8.13722 13.1666C8.6575 13.3889 9.25917 13.3889 9.77945 13.1666C12.4121 12.0415 14.1667 8.82748 14.1667 6.05386C14.1667 3.4423 11.8779 1.25 8.95833 1.25ZM8.95833 5.41667C8.38304 5.41667 7.91667 5.88304 7.91667 6.45833C7.91667 7.03363 8.38304 7.5 8.95833 7.5C9.53363 7.5 10 7.03363 10 6.45833C10 5.88304 9.53363 5.41667 8.95833 5.41667ZM6.66667 6.45833C6.66667 5.19268 7.69268 4.16667 8.95833 4.16667C10.224 4.16667 11.25 5.19268 11.25 6.45833C11.25 7.72399 10.224 8.75 8.95833 8.75C7.69268 8.75 6.66667 7.72399 6.66667 6.45833ZM1.95451 11.4555C2.1862 11.7114 2.1666 12.1066 1.91073 12.3383C1.43766 12.7667 1.25 13.1767 1.25 13.5417C1.25 14.1781 1.85334 14.9624 3.32225 15.6234C4.7325 16.258 6.7246 16.6667 8.95833 16.6667C11.1921 16.6667 13.1842 16.258 14.5944 15.6234C16.0633 14.9624 16.6667 14.1781 16.6667 13.5417C16.6667 13.1767 16.479 12.7667 16.0059 12.3383C15.7501 12.1066 15.7305 11.7114 15.9622 11.4555C16.1938 11.1996 16.5891 11.18 16.845 11.4117C17.4808 11.9875 17.9167 12.7092 17.9167 13.5417C17.9167 14.9763 16.6545 16.067 15.1074 16.7633C13.5015 17.4859 11.327 17.9167 8.95833 17.9167C6.5897 17.9167 4.41513 17.4859 2.8093 16.7633C1.26214 16.067 0 14.9763 0 13.5417C0 12.7092 0.435873 11.9875 1.07171 11.4117C1.32758 11.18 1.72282 11.1996 1.95451 11.4555Z" fill="var(--fill-0, #F7F7F1)"/>
</svg>
