<svg preserveAspectRatio="none" width="100%" height="100%" overflow="visible" style="display: block;" viewBox="0 0 18 18" fill="none" xmlns="http://www.w3.org/2000/svg">
<g id="Vector">
<path fill-rule="evenodd" clip-rule="evenodd" d="M4.60479 3.33333H13.3124C13.9927 3.33333 14.5414 3.33332 14.9857 3.36977C15.4431 3.4073 15.8448 3.4866 16.2162 3.67679C16.7998 3.97562 17.2747 4.45044 17.5735 5.03404C17.7637 5.40546 17.843 5.80717 17.8805 6.26461C17.917 6.70888 17.917 7.25758 17.9169 7.93787V7.96471C17.9169 7.98855 17.917 8.01255 17.9171 8.03669C17.9179 8.31842 17.9188 8.6184 17.81 8.88658C17.7165 9.11686 17.5658 9.31945 17.3721 9.47512C17.2837 9.54613 17.1858 9.60242 17.0832 9.64945C17.0808 10.993 17.0636 12.3506 16.943 13.5137C16.8722 14.1964 16.7636 14.8373 16.5913 15.3838C16.4219 15.9214 16.1716 16.4304 15.7755 16.7825C15.0893 17.3924 14.2257 17.6614 13.1475 17.7902C12.0893 17.9167 10.7329 17.9167 9.00128 17.9167H8.91594C7.18433 17.9167 5.82794 17.9167 4.76968 17.7902C3.69158 17.6614 2.82793 17.3924 2.14174 16.7825C1.74562 16.4304 1.49537 15.9214 1.3259 15.3838C1.15362 14.8373 1.04501 14.1964 0.974239 13.5137C0.85367 12.3506 0.836472 10.993 0.834021 9.64945C0.731408 9.60242 0.633528 9.54613 0.545155 9.47512C0.351432 9.31945 0.200702 9.11687 0.107271 8.88659C-0.00154013 8.6184 -0.000672933 8.31842 0.000141515 8.03669C0.000211302 8.01255 0.000280691 7.98855 0.000280691 7.96471L0.000280493 7.93784C0.000274284 7.25757 0.000269217 6.70887 0.036719 6.26461C0.07425 5.80717 0.153548 5.40546 0.343733 5.03404C0.642565 4.45044 1.11739 3.97562 1.70098 3.67679C2.0724 3.4866 2.47412 3.4073 2.93156 3.36977C3.37582 3.33332 3.92451 3.33333 4.60479 3.33333ZM2.08536 10.0489C2.09103 11.2462 2.11513 12.3966 2.21758 13.3848C2.2841 14.0265 2.38143 14.5745 2.51806 15.008C2.6575 15.4503 2.81913 15.7122 2.97219 15.8482C3.38434 16.2146 3.95376 16.4338 4.91801 16.549C5.89343 16.6656 7.1751 16.6667 8.95861 16.6667C10.7421 16.6667 12.0238 16.6656 12.9992 16.549C13.9635 16.4338 14.5329 16.2146 14.945 15.8482C15.0981 15.7122 15.2597 15.4503 15.3992 15.008C15.5358 14.5745 15.6331 14.0265 15.6997 13.3848C15.8021 12.3966 15.8262 11.2462 15.8319 10.0489L11.6669 11.2984V11.5929C11.6669 12.0188 11.4076 12.4019 11.0121 12.5601L10.4287 12.7934C9.48499 13.1709 8.43224 13.1709 7.48853 12.7934L6.90508 12.5601C6.50961 12.4019 6.25028 12.0188 6.25028 11.5929V11.2984L2.08536 10.0489ZM6.25028 9.99332L1.75659 8.64521C1.57707 8.59135 1.47333 8.55985 1.39728 8.53106C1.35065 8.5134 1.33209 8.50303 1.32727 8.50002C1.30029 8.47811 1.27922 8.44979 1.26598 8.41765C1.26449 8.41216 1.25988 8.3914 1.25637 8.34167C1.25064 8.26055 1.25028 8.15213 1.25028 7.96471C1.25028 7.25128 1.25077 6.75395 1.28253 6.36683C1.31369 5.98704 1.37178 5.76893 1.45635 5.60376C1.63565 5.2536 1.92054 4.9687 2.2707 4.78941C2.43588 4.70483 2.65399 4.64675 3.03377 4.61559C3.4209 4.58382 3.91823 4.58333 4.63166 4.58333H13.2856C13.999 4.58333 14.4963 4.58382 14.8835 4.61559C15.2632 4.64675 15.4814 4.70483 15.6465 4.78941C15.9967 4.96871 16.2816 5.2536 16.4609 5.60376C16.5455 5.76893 16.6035 5.98704 16.6347 6.36683C16.6665 6.75395 16.6669 7.25128 16.6669 7.96471C16.6669 8.15213 16.6666 8.26055 16.6609 8.34168C16.6574 8.39139 16.6527 8.41215 16.6513 8.41764C16.638 8.44978 16.6169 8.47811 16.59 8.50002C16.5851 8.50303 16.5666 8.5134 16.52 8.53106C16.4439 8.55985 16.3402 8.59135 16.1606 8.64521L11.6669 9.99332V9.79167C11.6669 9.21637 11.2006 8.75 10.6253 8.75H7.29195C6.71665 8.75 6.25028 9.21637 6.25028 9.79167V9.99332ZM16.5913 8.4991L16.59 8.50002ZM16.6508 8.41922L16.6513 8.41764ZM1.26647 8.41922L1.26598 8.41765ZM1.3259 8.4991L1.32727 8.50002ZM7.50028 10V11.4519L7.95276 11.6328C8.59846 11.8911 9.31877 11.8911 9.96446 11.6328L10.4169 11.4519V10H7.50028Z" fill="var(--fill-0, #F7F7F1)"/>
<path fill-rule="evenodd" clip-rule="evenodd" d="M8.95877 1.25C8.14336 1.25 7.448 1.77086 7.1903 2.49995C7.07528 2.82539 6.7182 2.99597 6.39275 2.88094C6.0673 2.76591 5.89673 2.40884 6.01175 2.08339C6.44045 0.870489 7.59715 0 8.95877 0C10.3204 0 11.4771 0.870489 11.9058 2.08339C12.0208 2.40884 11.8502 2.76591 11.5248 2.88094C11.1994 2.99597 10.8423 2.82539 10.7272 2.49995C10.4695 1.77086 9.77419 1.25 8.95877 1.25Z" fill="var(--fill-0, #F7F7F1)"/>
</g>
</svg>
