<svg preserveAspectRatio="none" width="100%" height="100%" overflow="visible" style="display: block;" viewBox="0 0 18 18" fill="none" xmlns="http://www.w3.org/2000/svg">
<g id="Vector">
<path fill-rule="evenodd" clip-rule="evenodd" d="M3.33344 3.95833C3.33344 1.77221 5.10565 0 7.29178 0C9.4779 0 11.2501 1.77221 11.2501 3.95833C11.2501 6.14446 9.4779 7.91667 7.29178 7.91667C5.10565 7.91667 3.33344 6.14446 3.33344 3.95833ZM7.29178 1.25C5.79601 1.25 4.58344 2.46256 4.58344 3.95833C4.58344 5.4541 5.79601 6.66667 7.29178 6.66667C8.78755 6.66667 10.0001 5.4541 10.0001 3.95833C10.0001 2.46256 8.78755 1.25 7.29178 1.25Z" fill="var(--fill-0, #F7F7F1)"/>
<path fill-rule="evenodd" clip-rule="evenodd" d="M2.27132 10.3453C3.58755 9.6049 5.36382 9.16667 7.29178 9.16667C9.21974 9.16667 10.996 9.6049 12.3122 10.3453C13.6089 11.0746 14.5834 12.1801 14.5834 13.5417L14.5835 13.6266C14.5844 14.5948 14.5856 15.81 13.5198 16.678C12.9952 17.1051 12.2614 17.4089 11.2699 17.6096C10.2757 17.8108 8.97992 17.9167 7.29178 17.9167C5.60363 17.9167 4.30783 17.8108 3.31362 17.6096C2.32218 17.4089 1.58835 17.1051 1.06379 16.678C-0.00206649 15.81 -0.000884892 14.5948 5.65635e-05 13.6266L0.000111847 13.5417C0.000111847 12.1801 0.974681 11.0746 2.27132 10.3453ZM2.88415 11.4348C1.76793 12.0626 1.25011 12.8322 1.25011 13.5417C1.25011 14.6315 1.28371 15.245 1.8531 15.7087C2.16188 15.9601 2.67805 16.2056 3.5616 16.3844C4.44239 16.5627 5.64659 16.6667 7.29178 16.6667C8.93697 16.6667 10.1412 16.5627 11.022 16.3844C11.9055 16.2056 12.4217 15.9601 12.7305 15.7087C13.2998 15.245 13.3334 14.6315 13.3334 13.5417C13.3334 12.8322 12.8156 12.0626 11.6994 11.4348C10.6028 10.8179 9.04572 10.4167 7.29178 10.4167C5.53784 10.4167 3.98078 10.8179 2.88415 11.4348Z" fill="var(--fill-0, #F7F7F1)"/>
<path fill-rule="evenodd" clip-rule="evenodd" d="M17.9168 7.03893C17.9168 6.12462 17.4481 5.37602 16.6704 5.10341C16.0626 4.89036 15.3887 5.01063 14.7918 5.40359C14.1949 5.01063 13.5209 4.89036 12.9132 5.10341C12.1355 5.37603 11.6668 6.12462 11.6668 7.03894C11.6668 7.68048 12.0344 8.24821 12.3959 8.66611C12.7736 9.10289 13.2411 9.4856 13.6244 9.76689L13.6832 9.81021C13.9759 10.0267 14.309 10.273 14.7918 10.273C15.2745 10.273 15.6077 10.0267 15.9004 9.81022L15.9591 9.76689C16.3425 9.4856 16.81 9.1029 17.1877 8.66612C17.5491 8.24822 17.9168 7.68048 17.9168 7.03893ZM15.224 6.65256C15.662 6.23322 16.0483 6.20991 16.2569 6.28303C16.448 6.35002 16.6668 6.5589 16.6668 7.03893C16.6668 7.21776 16.5491 7.49363 16.2422 7.84844C15.9517 8.18438 15.568 8.50352 15.2197 8.75908C15.0311 8.89741 14.9416 8.96119 14.87 8.99899C14.8247 9.02291 14.8121 9.02296 14.7918 9.02296C14.7714 9.02296 14.7589 9.02291 14.7135 8.99899C14.6419 8.96119 14.5524 8.8974 14.3639 8.75907C14.0156 8.50351 13.6319 8.18437 13.3413 7.84844C13.0345 7.49362 12.9168 7.21776 12.9168 7.03894C12.9168 6.5589 13.1356 6.35002 13.3267 6.28303C13.5353 6.20991 13.9216 6.23322 14.3595 6.65256C14.6012 6.88398 14.9823 6.88398 15.224 6.65256Z" fill="var(--fill-0, #F7F7F1)"/>
</g>
</svg>
