<svg preserveAspectRatio="none" width="100%" height="100%" overflow="visible" style="display: block;" viewBox="0 0 18 18" fill="none" xmlns="http://www.w3.org/2000/svg">
<path id="Vector (Stroke)" fill-rule="evenodd" clip-rule="evenodd" d="M8.95833 1.25C4.70114 1.25 1.25 4.70114 1.25 8.95833C1.25 13.2155 4.70114 16.6667 8.95833 16.6667C13.2155 16.6667 16.6667 13.2155 16.6667 8.95833C16.6667 4.70114 13.2155 1.25 8.95833 1.25ZM0 8.95833C0 4.01078 4.01078 0 8.95833 0C13.9059 0 17.9167 4.01078 17.9167 8.95833C17.9167 13.9059 13.9059 17.9167 8.95833 17.9167C4.01078 17.9167 0 13.9059 0 8.95833ZM8.95833 3.33333C9.30351 3.33333 9.58333 3.61316 9.58333 3.95833V4.22228C10.942 4.46556 12.0833 5.48634 12.0833 6.875C12.0833 7.22018 11.8035 7.5 11.4583 7.5C11.1132 7.5 10.8333 7.22018 10.8333 6.875C10.8333 6.17144 10.1054 5.41667 8.95833 5.41667C7.81126 5.41667 7.08333 6.17144 7.08333 6.875C7.08333 7.57856 7.81126 8.33333 8.95833 8.33333C10.5727 8.33333 12.0833 9.44404 12.0833 11.0417C12.0833 12.4303 10.942 13.4511 9.58333 13.6944V13.9583C9.58333 14.3035 9.30351 14.5833 8.95833 14.5833C8.61316 14.5833 8.33333 14.3035 8.33333 13.9583V13.6944C6.97464 13.4511 5.83333 12.4303 5.83333 11.0417C5.83333 10.6965 6.11316 10.4167 6.45833 10.4167C6.80351 10.4167 7.08333 10.6965 7.08333 11.0417C7.08333 11.7452 7.81126 12.5 8.95833 12.5C10.1054 12.5 10.8333 11.7452 10.8333 11.0417C10.8333 10.3381 10.1054 9.58333 8.95833 9.58333C7.34398 9.58333 5.83333 8.47263 5.83333 6.875C5.83333 5.48634 6.97464 4.46556 8.33333 4.22228V3.95833C8.33333 3.61316 8.61316 3.33333 8.95833 3.33333Z" fill="var(--fill-0, #F7F7F1)"/>
</svg>
