<svg preserveAspectRatio="none" width="100%" height="100%" overflow="visible" style="display: block;" viewBox="0 0 20 17" fill="none" xmlns="http://www.w3.org/2000/svg">
<g id="Vector">
<path fill-rule="evenodd" clip-rule="evenodd" d="M15.5833 3.4375C15.5833 5.33598 14.0443 6.875 12.1458 6.875C10.2474 6.875 8.70833 5.33598 8.70833 3.4375C8.70833 1.53902 10.2474 0 12.1458 0C14.0443 0 15.5833 1.53902 15.5833 3.4375ZM12.1458 5.5C13.2849 5.5 14.2083 4.57659 14.2083 3.4375C14.2083 2.29841 13.2849 1.375 12.1458 1.375C11.0067 1.375 10.0833 2.29841 10.0833 3.4375C10.0833 4.57659 11.0067 5.5 12.1458 5.5Z" fill="var(--fill-0, #FBFF5C)"/>
<path fill-rule="evenodd" clip-rule="evenodd" d="M4.125 12.6042C4.125 14.5026 5.66402 16.0417 7.5625 16.0417C9.46098 16.0417 11 14.5026 11 12.6042C11 10.7057 9.46098 9.16667 7.5625 9.16667C5.66402 9.16667 4.125 10.7057 4.125 12.6042ZM7.5625 14.6667C6.42341 14.6667 5.5 13.7433 5.5 12.6042C5.5 11.4651 6.42341 10.5417 7.5625 10.5417C8.70159 10.5417 9.625 11.4651 9.625 12.6042C9.625 13.7433 8.70159 14.6667 7.5625 14.6667Z" fill="var(--fill-0, #FBFF5C)"/>
<path d="M11.9167 12.5661C11.9167 12.1864 12.2245 11.8786 12.6042 11.8786H19.0208C19.4005 11.8786 19.7083 12.1864 19.7083 12.5661C19.7083 12.9458 19.4005 13.2536 19.0208 13.2536H12.6042C12.2245 13.2536 11.9167 12.9458 11.9167 12.5661Z" fill="var(--fill-0, #FBFF5C)"/>
<path d="M7.10417 2.71198C7.48386 2.71198 7.79167 3.01978 7.79167 3.39948C7.79167 3.77917 7.48386 4.08698 7.10417 4.08698L0.6875 4.08698C0.307804 4.08698 0 3.77917 0 3.39948C0 3.01978 0.307804 2.71198 0.6875 2.71198L7.10417 2.71198Z" fill="var(--fill-0, #FBFF5C)"/>
<path d="M0 12.5661C0 12.1864 0.307805 11.8786 0.6875 11.8786H2.52083C2.90053 11.8786 3.20833 12.1864 3.20833 12.5661C3.20833 12.9458 2.90053 13.2536 2.52083 13.2536H0.687501C0.307805 13.2536 0 12.9458 0 12.5661Z" fill="var(--fill-0, #FBFF5C)"/>
<path d="M19.0208 2.71198C19.4005 2.71198 19.7083 3.01978 19.7083 3.39948C19.7083 3.77917 19.4005 4.08698 19.0208 4.08698H17.1875C16.8078 4.08698 16.5 3.77917 16.5 3.39948C16.5 3.01978 16.8078 2.71198 17.1875 2.71198H19.0208Z" fill="var(--fill-0, #FBFF5C)"/>
</g>
</svg>
