<svg preserveAspectRatio="none" width="100%" height="100%" overflow="visible" style="display: block;" viewBox="0 0 19 19" fill="none" xmlns="http://www.w3.org/2000/svg">
<path id="Subtract" fill-rule="evenodd" clip-rule="evenodd" d="M6.9597 1.10025C6.73647 1.29049 6.62485 1.38561 6.50564 1.46551C6.23238 1.64866 5.92549 1.77578 5.60276 1.8395C5.46197 1.86729 5.31578 1.87896 5.02341 1.90229C4.2888 1.96091 3.9215 1.99022 3.61506 2.09846C2.9063 2.3488 2.3488 2.9063 2.09846 3.61506C1.99022 3.9215 1.96091 4.2888 1.90229 5.02341C1.87896 5.31578 1.86729 5.46197 1.8395 5.60276C1.77578 5.92549 1.64866 6.23238 1.46551 6.50564C1.38561 6.62485 1.29049 6.73647 1.10025 6.9597C0.622265 7.52059 0.383262 7.80105 0.243114 8.09426C-0.0810381 8.77246 -0.0810381 9.56088 0.243114 10.2391C0.383263 10.5323 0.622258 10.8127 1.10025 11.3736C1.29047 11.5968 1.38562 11.7085 1.46551 11.8277C1.64866 12.101 1.77578 12.4078 1.8395 12.7306C1.86729 12.8714 1.87896 13.0176 1.90229 13.3099C1.96091 14.0445 1.99022 14.4118 2.09846 14.7183C2.3488 15.427 2.9063 15.9845 3.61506 16.2349C3.9215 16.3431 4.2888 16.3724 5.02341 16.431C5.31578 16.4544 5.46197 16.466 5.60276 16.4938C5.92549 16.5576 6.23238 16.6847 6.50564 16.8678C6.62485 16.9477 6.73647 17.0428 6.9597 17.2331C7.5206 17.7111 7.80104 17.9501 8.09426 18.0902C8.77246 18.4144 9.56088 18.4144 10.2391 18.0902C10.5323 17.9501 10.8127 17.7111 11.3736 17.2331C11.5969 17.0428 11.7085 16.9477 11.8277 16.8678C12.101 16.6847 12.4078 16.5576 12.7306 16.4938C12.8714 16.466 13.0176 16.4544 13.3099 16.431C14.0445 16.3724 14.4118 16.3431 14.7183 16.2349C15.427 15.9845 15.9845 15.427 16.2349 14.7183C16.3431 14.4118 16.3724 14.0445 16.431 13.3099C16.4544 13.0176 16.466 12.8714 16.4938 12.7306C16.5576 12.4078 16.6847 12.101 16.8678 11.8277C16.9477 11.7085 17.0428 11.5969 17.2331 11.3736C17.7111 10.8127 17.9501 10.5323 18.0902 10.2391C18.4144 9.56088 18.4144 8.77246 18.0902 8.09426C17.9501 7.80104 17.7111 7.5206 17.2331 6.9597C17.0428 6.73647 16.9477 6.62485 16.8678 6.50564C16.6847 6.23238 16.5576 5.92549 16.4938 5.60276C16.466 5.46197 16.4544 5.31578 16.431 5.02341C16.3724 4.2888 16.3431 3.9215 16.2349 3.61506C15.9845 2.9063 15.427 2.3488 14.7183 2.09846C14.4118 1.99022 14.0445 1.96091 13.3099 1.90229C13.0176 1.87896 12.8714 1.86729 12.7306 1.8395C12.4078 1.77578 12.101 1.64866 11.8277 1.46551C11.7085 1.38561 11.5969 1.29049 11.3736 1.10025C10.8127 0.622259 10.5323 0.383263 10.2391 0.243114C9.56088 -0.0810381 8.77246 -0.0810381 8.09426 0.243114C7.80104 0.383263 7.52059 0.622264 6.9597 1.10025ZM13.1757 7.20787C13.467 6.91653 13.467 6.44416 13.1757 6.15282C12.8843 5.86147 12.412 5.86147 12.1206 6.15282L7.67458 10.5989L6.21267 9.13697C5.92132 8.84562 5.44896 8.84562 5.15761 9.13697C4.86627 9.42832 4.86627 9.90068 5.15761 10.192L7.14705 12.1815C7.43839 12.4728 7.91076 12.4728 8.20211 12.1815L13.1757 7.20787Z" fill="var(--fill-0, #FBFF5C)"/>
</svg>
