<svg preserveAspectRatio="none" width="100%" height="100%" overflow="visible" style="display: block;" viewBox="0 0 26 26" fill="none" xmlns="http://www.w3.org/2000/svg">
<path id="Vector" fill-rule="evenodd" clip-rule="evenodd" d="M12.5417 1.75C6.58159 1.75 1.75 6.58159 1.75 12.5417C1.75 14.2696 2.15545 15.9003 2.8756 17.3461C3.16463 17.9264 3.27593 18.6203 3.09357 19.3019L2.3987 21.8989C2.27107 22.3759 2.70744 22.8123 3.18441 22.6846L5.78145 21.9898C6.46302 21.8074 7.15692 21.9187 7.73723 22.2077C9.18307 22.9279 10.8138 23.3333 12.5417 23.3333C18.5017 23.3333 23.3333 18.5017 23.3333 12.5417C23.3333 6.58159 18.5017 1.75 12.5417 1.75ZM0 12.5417C0 5.61509 5.61509 0 12.5417 0C19.4682 0 25.0833 5.61509 25.0833 12.5417C25.0833 19.4682 19.4682 25.0833 12.5417 25.0833C10.537 25.0833 8.63978 24.6123 6.95701 23.7742C6.70589 23.6491 6.44949 23.6226 6.23378 23.6803L3.63674 24.3752C1.85893 24.8508 0.232486 23.2244 0.708163 21.4466L1.40304 18.8496C1.46076 18.6338 1.43422 18.3774 1.30915 18.1263C0.470991 16.4436 0 14.5464 0 12.5417ZM7 10.7917C7 10.3084 7.39175 9.91667 7.875 9.91667H17.2083C17.6916 9.91667 18.0833 10.3084 18.0833 10.7917C18.0833 11.2749 17.6916 11.6667 17.2083 11.6667H7.875C7.39175 11.6667 7 11.2749 7 10.7917ZM7 14.875C7 14.3918 7.39175 14 7.875 14H14.2917C14.7749 14 15.1667 14.3918 15.1667 14.875C15.1667 15.3582 14.7749 15.75 14.2917 15.75H7.875C7.39175 15.75 7 15.3582 7 14.875Z" fill="var(--fill-0, #CECEC9)"/>
</svg>
