<svg preserveAspectRatio="none" width="100%" height="100%" overflow="visible" style="display: block;" viewBox="0 0 25 25" fill="none" xmlns="http://www.w3.org/2000/svg">
<path id="Vector" fill-rule="evenodd" clip-rule="evenodd" d="M20.001 1.90264C18.636 2.14545 16.7958 2.75639 14.2131 3.61726L8.36665 5.56609C6.28995 6.25833 4.78579 6.76046 3.72337 7.21233C2.61263 7.68475 2.2175 8.01405 2.08917 8.2348C1.6939 8.91471 1.6939 9.75445 2.08917 10.4344C2.2175 10.6551 2.61262 10.9844 3.72337 11.4568C4.78579 11.9087 6.28995 12.4108 8.36665 13.1031C8.39944 13.114 8.43182 13.1248 8.4638 13.1354C8.90669 13.2827 9.2726 13.4044 9.59231 13.5716L15.8029 7.42946C16.1549 7.08136 16.7224 7.08451 17.0705 7.43649C17.4186 7.78847 17.4155 8.35601 17.0635 8.70411L10.8803 14.8192C11.073 15.1597 11.2035 15.5519 11.3646 16.0362C11.3752 16.0682 11.386 16.1006 11.3969 16.1334C12.0892 18.2101 12.5913 19.7142 13.0432 20.7766C13.5156 21.8874 13.8449 22.2825 14.0656 22.4108C14.7455 22.8061 15.5853 22.8061 16.2652 22.4108C16.4859 22.2825 16.8152 21.8874 17.2877 20.7766C17.7395 19.7142 18.2417 18.2101 18.9339 16.1334L20.8827 10.2869C21.7436 7.70424 22.3545 5.86398 22.5974 4.49901C22.8413 3.12753 22.6549 2.54496 22.305 2.19503C21.955 1.84511 21.3725 1.65866 20.001 1.90264ZM19.687 0.137631C21.2062 -0.132627 22.5745 -0.0706852 23.5726 0.927395C24.5707 1.92548 24.6326 3.29376 24.3624 4.81299C24.0937 6.32304 23.4387 8.28817 22.6093 10.7761L20.6203 16.7434C19.9454 18.768 19.421 20.3412 18.9374 21.4783C18.4709 22.575 17.9529 23.5033 17.1662 23.9607C15.9293 24.6798 14.4016 24.6798 13.1646 23.9607C12.3779 23.5033 11.8599 22.575 11.3935 21.4783C10.9099 20.3413 10.3855 18.7681 9.71061 16.7434L9.69622 16.7003C9.45978 15.991 9.38771 15.7985 9.2856 15.646C9.17133 15.4753 9.02469 15.3287 8.85399 15.2144C8.70147 15.1123 8.50906 15.0402 7.79974 14.8038L7.75653 14.7894C5.7319 14.1145 4.15874 13.5901 3.02172 13.1065C1.92496 12.6401 0.996693 12.1221 0.539323 11.3354C-0.179775 10.0984 -0.179774 8.57073 0.539324 7.33379C0.996694 6.54706 1.92496 6.02911 3.02172 5.56263C4.15875 5.07903 5.73194 4.55464 7.7566 3.87976L13.7239 1.89066C16.2118 1.06132 18.177 0.406256 19.687 0.137631Z" fill="var(--fill-0, #F7F7F1)"/>
</svg>
