<svg preserveAspectRatio="none" width="100%" height="100%" overflow="visible" style="display: block;" viewBox="0 0 11.6667 14.3333" fill="none" xmlns="http://www.w3.org/2000/svg">
<path id="Vector" fill-rule="evenodd" clip-rule="evenodd" d="M7.23283 0.760728C8.24713 -0.253576 9.89165 -0.253576 10.906 0.760728C11.9203 1.77503 11.9203 3.41955 10.906 4.43385L5.84328 9.49653C5.55794 9.78189 5.38369 9.95616 5.18948 10.1076C4.96066 10.2861 4.71308 10.4391 4.45111 10.564C4.22877 10.6699 3.99496 10.7479 3.61212 10.8755L1.83035 11.4694L1.40258 11.612C1.01968 11.7396 0.597527 11.6399 0.31213 11.3545C0.0267329 11.0692 -0.0729222 10.647 0.0547111 10.2641L0.791222 8.05457C0.918815 7.67172 0.996735 7.43792 1.1027 7.21557C1.22755 6.95361 1.38056 6.70602 1.55904 6.4772C1.71052 6.28299 1.88479 6.10873 2.17016 5.82339L7.23283 0.760728ZM1.80728 10.423L1.24371 9.8594L1.72932 8.40255C1.87071 7.97839 1.92911 7.80592 2.00542 7.64579C2.09902 7.44939 2.21374 7.26377 2.34755 7.09222C2.45665 6.95235 2.58479 6.82298 2.90094 6.50683L6.82826 2.57952C6.99036 2.98618 7.26464 3.47699 7.72717 3.93951C8.18969 4.40204 8.6805 4.67632 9.08716 4.83842L5.15985 8.76574C4.84369 9.08189 4.71433 9.21003 4.57446 9.31913C4.40291 9.45294 4.21729 9.56765 4.02089 9.66125C3.86075 9.73757 3.68829 9.79597 3.26413 9.93736L1.80728 10.423ZM9.88398 4.0416C9.80143 4.02348 9.69821 3.99621 9.58086 3.9555C9.25818 3.84355 8.83372 3.63186 8.43427 3.23241C8.03482 2.83296 7.82313 2.4085 7.71118 2.08582C7.67047 1.96847 7.6432 1.86525 7.62508 1.7827L7.93994 1.46784C8.56372 0.844055 9.57506 0.844055 10.1988 1.46784C10.8226 2.09162 10.8226 3.10296 10.1988 3.72674L9.88398 4.0416ZM1.3572e-05 13.8333C1.3572e-05 13.5572 0.223871 13.3333 0.500014 13.3333H11.1667V14.3333H0.500014C0.223871 14.3333 1.3572e-05 14.1095 1.3572e-05 13.8333Z" fill="var(--fill-0, #1E1E1D)"/>
</svg>
