<svg preserveAspectRatio="none" width="100%" height="100%" overflow="visible" style="display: block;" viewBox="0 0 9 9" fill="none" xmlns="http://www.w3.org/2000/svg">
<path id="Vector" d="M3.92453 0.391646C4.13048 -0.130549 4.86952 -0.130549 5.07547 0.391647L5.97615 2.67535C6.03902 2.83478 6.16522 2.96098 6.32465 3.02385L8.60835 3.92453C9.13055 4.13048 9.13055 4.86952 8.60835 5.07547L6.32465 5.97615C6.16522 6.03902 6.03902 6.16522 5.97615 6.32465L5.07547 8.60835C4.86952 9.13055 4.13048 9.13055 3.92453 8.60835L3.02385 6.32465C2.96098 6.16522 2.83478 6.03902 2.67535 5.97615L0.391646 5.07547C-0.130549 4.86952 -0.130549 4.13048 0.391647 3.92453L2.67535 3.02385C2.83478 2.96098 2.96098 2.83478 3.02385 2.67535L3.92453 0.391646Z" fill="var(--fill-0, #1F2000)"/>
</svg>
