<svg preserveAspectRatio="none" width="100%" height="100%" overflow="visible" style="display: block;" viewBox="0 0 24.5978 25.0807" fill="none" xmlns="http://www.w3.org/2000/svg">
<path id="Vector" fill-rule="evenodd" clip-rule="evenodd" d="M17.6679 0.89975L17.7455 0.920542C19.0281 1.26421 20.0445 1.53655 20.8439 1.82534C21.6617 2.12075 22.3286 2.45868 22.8779 2.97321C23.6779 3.72246 24.2377 4.69209 24.4866 5.7595C24.6575 6.49253 24.6167 7.239 24.4637 8.09491C24.3141 8.93169 24.0417 9.94813 23.698 11.2308L23.0733 13.5621C22.7297 14.8447 22.4573 15.8611 22.1685 16.6605C21.8731 17.4783 21.5352 18.1451 21.0207 18.6945C20.2953 19.469 19.3633 20.0184 18.3359 20.2785C18.0358 20.9666 17.5975 21.5896 17.0446 22.1075C16.4952 22.622 15.8284 22.9599 15.0106 23.2553C14.2112 23.5441 13.1948 23.8165 11.9122 24.1601L11.8347 24.1809C10.552 24.5246 9.5356 24.797 8.69882 24.9466C7.84291 25.0996 7.09644 25.1404 6.36341 24.9695C5.296 24.7206 4.32637 24.1608 3.57713 23.3608C3.06259 22.8115 2.72466 22.1446 2.42925 21.3268C2.14046 20.5274 1.86812 19.511 1.52445 18.2284L0.899759 15.897C0.556079 14.6144 0.283728 13.598 0.134103 12.7612C-0.0189476 11.9053 -0.059721 11.1588 0.111198 10.4258C0.360082 9.35841 0.9199 8.38877 1.71986 7.63953C2.26922 7.12499 2.93608 6.78707 3.75384 6.49166C4.5533 6.20286 5.56971 5.93052 6.85231 5.58686L6.89109 5.57646C7.19964 5.49379 7.49157 5.4157 7.76796 5.34268C8.22484 3.71036 8.62689 2.55647 9.41046 1.71986C10.1597 0.9199 11.1293 0.360082 12.1967 0.111198C12.9298 -0.059721 13.6762 -0.0189476 14.5322 0.134103C15.3689 0.283727 16.3853 0.556075 17.6679 0.89975ZM7.23919 7.29493C5.96416 7.63666 5.05056 7.88391 4.3484 8.13756C3.63741 8.3944 3.21995 8.63225 2.91615 8.91679C2.36881 9.42943 1.98577 10.0929 1.81548 10.8232C1.72096 11.2286 1.72371 11.709 1.85678 12.4532C1.99177 13.2081 2.24414 14.1528 2.60052 15.4828L3.20443 17.7367C3.56081 19.0667 3.81461 20.011 4.07516 20.7323C4.33199 21.4433 4.56985 21.8607 4.85439 22.1645C5.36703 22.7119 6.03046 23.0949 6.76079 23.2652C7.16616 23.3597 7.64662 23.357 8.39078 23.2239C9.14568 23.0889 10.0904 22.8365 11.4204 22.4802C12.7504 22.1238 13.6948 21.87 14.4161 21.6094C15.127 21.3526 15.5445 21.1148 15.8483 20.8302C16.0088 20.6799 16.1552 20.5166 16.2862 20.3425C16.0773 20.3131 15.8624 20.2755 15.64 20.2313C14.8562 20.0754 13.9147 19.8232 12.7526 19.5118L12.6856 19.4938C11.403 19.1502 10.3866 18.8778 9.58717 18.589C8.76941 18.2936 8.10256 17.9557 7.55319 17.4412C6.75323 16.6919 6.19342 15.7223 5.94453 14.6549C5.77361 13.9218 5.81439 13.1754 5.96744 12.3195C6.11706 11.4827 6.38941 10.4663 6.73309 9.1837L7.23919 7.29493ZM14.2241 1.85678C13.48 1.72371 12.9995 1.72096 12.5941 1.81548C11.8638 1.98577 11.2004 2.36881 10.6877 2.91615C10.1789 3.45938 9.86583 4.29861 9.32131 6.2921C9.23282 6.61609 9.13925 6.96526 9.03776 7.34403L8.43385 9.59785C8.07748 10.9279 7.8251 11.8726 7.69011 12.6275C7.55704 13.3717 7.5543 13.8521 7.64882 14.2575C7.81911 14.9878 8.20214 15.6513 8.74948 16.1639C9.05328 16.4484 9.47074 16.6863 10.1817 16.9431C10.903 17.2037 11.8474 17.4575 13.1774 17.8139C14.3737 18.1344 15.2603 18.3715 15.9813 18.5149C16.699 18.6576 17.1861 18.6926 17.5854 18.6434C17.6722 18.6327 17.7557 18.6179 17.837 18.5989C18.5673 18.4286 19.2308 18.0456 19.7434 17.4982C20.0279 17.1944 20.2658 16.777 20.5226 16.066C20.7832 15.3447 21.037 14.4004 21.3934 13.0703L21.9973 10.8165C22.3536 9.4865 22.606 8.54176 22.741 7.78687C22.8741 7.04271 22.8768 6.56225 22.7823 6.15688C22.612 5.42655 22.229 4.76312 21.6816 4.25048C21.3778 3.96594 20.9604 3.72808 20.2494 3.47124C19.5281 3.2107 18.5838 2.9569 17.2538 2.60052C15.9237 2.24414 14.979 1.99177 14.2241 1.85678ZM11.4361 9.98186C11.5612 9.51508 12.041 9.23806 12.5078 9.36314L18.1424 10.8729C18.6091 10.998 18.8861 11.4778 18.7611 11.9446C18.636 12.4114 18.1562 12.6884 17.6894 12.5633L12.0549 11.0535C11.5881 10.9284 11.3111 10.4486 11.4361 9.98186ZM10.5298 13.3625C10.6549 12.8957 11.1347 12.6187 11.6015 12.7438L14.9822 13.6497C15.449 13.7747 15.726 14.2545 15.6009 14.7213C15.4758 15.1881 14.996 15.4651 14.5293 15.34L11.1485 14.4342C10.6817 14.3091 10.4047 13.8293 10.5298 13.3625Z" fill="var(--fill-0, #CECEC9)"/>
</svg>
