<svg preserveAspectRatio="none" width="100%" height="100%" overflow="visible" style="display: block;" viewBox="0 0 20.417 25.0833" fill="none" xmlns="http://www.w3.org/2000/svg">
<g id="Vector">
<path fill-rule="evenodd" clip-rule="evenodd" d="M10.2085 0C7.14791 0 4.66682 2.48109 4.66682 5.54167C4.66682 8.60225 7.14791 11.0833 10.2085 11.0833C13.2691 11.0833 15.7502 8.60225 15.7502 5.54167C15.7502 2.48109 13.2691 0 10.2085 0ZM6.41682 5.54167C6.41682 3.44759 8.11441 1.75 10.2085 1.75C12.3026 1.75 14.0002 3.44759 14.0002 5.54167C14.0002 7.63575 12.3026 9.33333 10.2085 9.33333C8.11441 9.33333 6.41682 7.63575 6.41682 5.54167Z" fill="var(--fill-0, #CECEC9)"/>
<path fill-rule="evenodd" clip-rule="evenodd" d="M10.2085 12.8333C7.50935 12.8333 5.02257 13.4469 3.17985 14.4834C1.36455 15.5045 0.000156585 17.0521 0.000156585 18.9583L7.91888e-05 19.0773C-0.00123885 20.4328 -0.00289309 22.134 1.4893 23.3491C2.22368 23.9472 3.25105 24.3724 4.63907 24.6534C6.03096 24.9351 7.84509 25.0833 10.2085 25.0833C12.5719 25.0833 14.386 24.9351 15.7779 24.6534C17.1659 24.3724 18.1933 23.9472 18.9277 23.3491C20.4199 22.134 20.4182 20.4328 20.4169 19.0773L20.4168 18.9583C20.4168 17.0521 19.0524 15.5045 17.2371 14.4834C15.3944 13.4469 12.9076 12.8333 10.2085 12.8333ZM1.75016 18.9583C1.75016 17.9651 2.4751 16.8877 4.03781 16.0087C5.57309 15.1451 7.75298 14.5833 10.2085 14.5833C12.664 14.5833 14.8439 15.1451 16.3792 16.0087C17.9419 16.8877 18.6668 17.9651 18.6668 18.9583C18.6668 20.4841 18.6198 21.343 17.8226 21.9922C17.3904 22.3442 16.6677 22.6878 15.4307 22.9382C14.1976 23.1878 12.5118 23.3333 10.2085 23.3333C7.90523 23.3333 6.21935 23.1878 4.98625 22.9382C3.74927 22.6878 3.02663 22.3442 2.59434 21.9922C1.79719 21.343 1.75016 20.4841 1.75016 18.9583Z" fill="var(--fill-0, #CECEC9)"/>
</g>
</svg>
