<svg preserveAspectRatio="none" width="100%" height="100%" overflow="visible" style="display: block;" viewBox="0 0 19.5 21.5" fill="none" xmlns="http://www.w3.org/2000/svg">
<g id="Vector">
<path fill-rule="evenodd" clip-rule="evenodd" d="M9.75 7C7.67893 7 6 8.67893 6 10.75C6 12.8211 7.67893 14.5 9.75 14.5C11.8211 14.5 13.5 12.8211 13.5 10.75C13.5 8.67893 11.8211 7 9.75 7ZM7.5 10.75C7.5 9.50736 8.50736 8.5 9.75 8.5C10.9926 8.5 12 9.50736 12 10.75C12 11.9926 10.9926 13 9.75 13C8.50736 13 7.5 11.9926 7.5 10.75Z" fill="var(--fill-0, #F7F7F1)"/>
<path fill-rule="evenodd" clip-rule="evenodd" d="M9.75 0C9.04541 0 8.40185 0.193593 7.69858 0.520366C7.01808 0.836557 6.23039 1.30304 5.24457 1.88685L4.49148 2.33283C3.50533 2.91682 2.71771 3.38324 2.11076 3.82944C1.48315 4.29083 1.00177 4.76311 0.653344 5.38212C0.305476 6.00014 0.148411 6.66095 0.0730552 7.44506C-1.48416e-05 8.20539 -8.16688e-06 9.13651 1.77773e-07 10.306V11.194C-8.16688e-06 12.3635 -1.48416e-05 13.2946 0.0730552 14.0549C0.148411 14.8391 0.305476 15.4999 0.653344 16.1179C1.00177 16.7369 1.48315 17.2092 2.11076 17.6706C2.71771 18.1168 3.50533 18.5832 4.49148 19.1672L5.2446 19.6132C6.23038 20.197 7.0181 20.6635 7.69858 20.9796C8.40185 21.3064 9.04541 21.5 9.75 21.5C10.4546 21.5 11.0981 21.3064 11.8014 20.9796C12.4819 20.6634 13.2696 20.197 14.2554 19.6132L15.0085 19.1672C15.9946 18.5832 16.7823 18.1168 17.3892 17.6706C18.0169 17.2092 18.4982 16.7369 18.8467 16.1179C19.1945 15.4999 19.3516 14.8391 19.4269 14.0549C19.5 13.2946 19.5 12.3635 19.5 11.1941V10.306C19.5 9.13656 19.5 8.20538 19.4269 7.44506C19.3516 6.66095 19.1945 6.00014 18.8467 5.38212C18.4982 4.76311 18.0169 4.29083 17.3892 3.82944C16.7823 3.38324 15.9947 2.91683 15.0085 2.33285L14.2554 1.88685C13.2696 1.30303 12.4819 0.836556 11.8014 0.520365C11.0981 0.193592 10.4546 0 9.75 0ZM5.97524 3.19744C7.00238 2.58917 7.72606 2.16161 8.33065 1.88069C8.9202 1.60676 9.34074 1.5 9.75 1.5C10.1593 1.5 10.5798 1.60676 11.1693 1.88069C11.7739 2.16161 12.4976 2.58917 13.5248 3.19744L14.2109 3.60379C15.2379 4.21197 15.9609 4.64115 16.5008 5.038C17.0267 5.42467 17.331 5.74746 17.5395 6.11788C17.7486 6.48929 17.8699 6.9239 17.9338 7.58855C17.9992 8.26884 18 9.12802 18 10.3437V11.1563C18 12.372 17.9992 13.2312 17.9338 13.9114C17.8699 14.5761 17.7486 15.0107 17.5395 15.3821C17.331 15.7525 17.0267 16.0753 16.5008 16.462C15.9609 16.8589 15.2379 17.288 14.2109 17.8962L13.5248 18.3026C12.4976 18.9108 11.7739 19.3384 11.1693 19.6193C10.5798 19.8932 10.1593 20 9.75 20C9.34074 20 8.9202 19.8932 8.33065 19.6193C7.72606 19.3384 7.00238 18.9108 5.97524 18.3026L5.28909 17.8962C4.2621 17.288 3.53906 16.8589 2.99923 16.462C2.47326 16.0753 2.169 15.7525 1.9605 15.3821C1.75145 15.0107 1.63005 14.5761 1.56618 13.9114C1.5008 13.2312 1.5 12.372 1.5 11.1563V10.3437C1.5 9.12802 1.5008 8.26884 1.56618 7.58855C1.63005 6.9239 1.75145 6.48929 1.9605 6.11788C2.169 5.74746 2.47326 5.42467 2.99923 5.038C3.53906 4.64115 4.2621 4.21197 5.28909 3.60379L5.97524 3.19744Z" fill="var(--fill-0, #F7F7F1)"/>
</g>
</svg>
