<svg preserveAspectRatio="none" width="100%" height="100%" overflow="visible" style="display: block;" viewBox="0 0 23.3333 23.3333" fill="none" xmlns="http://www.w3.org/2000/svg">
<path id="Vector" fill-rule="evenodd" clip-rule="evenodd" d="M11.6667 23.3333C18.11 23.3333 23.3333 18.11 23.3333 11.6667C23.3333 5.22334 18.11 0 11.6667 0C5.22334 0 0 5.22334 0 11.6667C0 13.533 0.438219 15.2969 1.21737 16.8612C1.42443 17.2769 1.49334 17.7521 1.3733 18.2007L0.678429 20.7978C0.37678 21.9251 1.40818 22.9566 2.53557 22.6549L5.13262 21.96C5.58125 21.84 6.05641 21.9089 6.47212 22.116C8.03643 22.8951 9.80037 23.3333 11.6667 23.3333ZM7 13.125C6.51675 13.125 6.125 13.5168 6.125 14C6.125 14.4833 6.51675 14.875 7 14.875H13.4167C13.8999 14.875 14.2917 14.4833 14.2917 14C14.2917 13.5168 13.8999 13.125 13.4167 13.125H7ZM6.125 9.91667C6.125 9.43342 6.51675 9.04167 7 9.04167H16.3333C16.8166 9.04167 17.2083 9.43342 17.2083 9.91667C17.2083 10.3999 16.8166 10.7917 16.3333 10.7917H7C6.51675 10.7917 6.125 10.3999 6.125 9.91667Z" fill="var(--fill-0, #FBFF5C)"/>
</svg>
