<svg preserveAspectRatio="none" width="100%" height="100%" overflow="visible" style="display: block;" viewBox="0 0 13 13" fill="none" xmlns="http://www.w3.org/2000/svg">
<path id="Vector" d="M5.45284 0.712664C5.8276 -0.237556 7.1724 -0.237554 7.54716 0.712666L8.70851 3.65732C8.82293 3.94743 9.05257 4.17707 9.34268 4.29148L12.2873 5.45284C13.2376 5.8276 13.2376 7.1724 12.2873 7.54716L9.34268 8.70851C9.05257 8.82293 8.82293 9.05257 8.70851 9.34268L7.54716 12.2873C7.1724 13.2376 5.8276 13.2376 5.45284 12.2873L4.29148 9.34268C4.17707 9.05257 3.94743 8.82293 3.65732 8.70851L0.712664 7.54716C-0.237556 7.1724 -0.237554 5.8276 0.712666 5.45284L3.65732 4.29148C3.94743 4.17707 4.17707 3.94743 4.29148 3.65732L5.45284 0.712664Z" fill="var(--fill-0, #1F2000)"/>
</svg>
