<svg width="24" height="24" viewBox="0 0 24 24" fill="none" xmlns="http://www.w3.org/2000/svg">
<path d="M9.35506 5.83125L9.47506 5.89125C9.96006 6.14125 10.3551 6.53625 10.6051 7.02125L10.6651 7.14125C10.9051 7.61625 11.5851 7.61625 11.8301 7.14125L11.8901 7.02125C12.1401 6.53625 12.5351 6.14125 13.0201 5.89125L13.1401 5.83125C13.6151 5.59125 13.6151 4.91125 13.1401 4.66625L13.0201 4.60625C12.5351 4.35625 12.1401 3.96125 11.8901 3.47625L11.8301 3.35625C11.5901 2.88125 10.9101 2.88125 10.6651 3.35625L10.6051 3.47625C10.3551 3.96125 9.96006 4.35625 9.47506 4.60625L9.35506 4.66625C8.88006 4.90625 8.88006 5.58625 9.35506 5.83125Z" fill="#8E8CFF"/>
<path d="M10.3001 10.5163C10.7901 10.2663 10.7901 9.57125 10.3001 9.32125L9.57006 8.94625C8.92006 8.61125 8.39006 8.08125 8.05506 7.43125L7.68006 6.70125C7.43006 6.21125 6.73506 6.21125 6.48506 6.70125L6.11006 7.43125C5.77506 8.08125 5.24506 8.61125 4.59506 8.94625L3.86506 9.32125C3.37506 9.57125 3.37506 10.2663 3.86506 10.5163L4.59506 10.8913C5.24506 11.2263 5.77506 11.7563 6.11006 12.4062L6.48506 13.1363C6.73506 13.6263 7.43006 13.6263 7.68006 13.1363L8.05506 12.4062C8.39006 11.7563 8.92006 11.2263 9.57006 10.8913L10.3001 10.5163Z" fill="#8E8CFF"/>
<path d="M19.6801 13.5063L18.9401 13.1263C18.0451 12.6713 17.3301 11.9563 16.8751 11.0613L16.4951 10.3212C16.1601 9.66125 15.4901 9.25125 14.7501 9.25125C14.0101 9.25125 13.3401 9.66125 13.0051 10.3212L12.6251 11.0613C12.1701 11.9563 11.4551 12.6713 10.5601 13.1263L9.82006 13.5063C9.16006 13.8413 8.75006 14.5113 8.75006 15.2513C8.75006 15.9913 9.16006 16.6613 9.82006 16.9963L10.5601 17.3763C11.4551 17.8313 12.1701 18.5463 12.6251 19.4413L13.0051 20.1813C13.3401 20.8413 14.0101 21.2513 14.7501 21.2513C15.4901 21.2513 16.1601 20.8413 16.4951 20.1813L16.8751 19.4413C17.3301 18.5463 18.0451 17.8313 18.9401 17.3763L19.6801 16.9963C20.3401 16.6613 20.7501 15.9913 20.7501 15.2513C20.7501 14.5113 20.3401 13.8413 19.6801 13.5063ZM19.0001 15.6613L18.2601 16.0413C17.0801 16.6413 16.1401 17.5813 15.5401 18.7613L15.1601 19.5013C15.0451 19.7263 14.8351 19.7513 14.7501 19.7513C14.6651 19.7513 14.4551 19.7263 14.3401 19.5013L13.9601 18.7613C13.3601 17.5813 12.4201 16.6413 11.2401 16.0413L10.5001 15.6613C10.2751 15.5463 10.2501 15.3363 10.2501 15.2513C10.2501 15.1663 10.2751 14.9563 10.5001 14.8413L11.2401 14.4613C12.4201 13.8612 13.3601 12.9213 13.9601 11.7413L14.3401 11.0013C14.4551 10.7763 14.6651 10.7513 14.7501 10.7513C14.8351 10.7513 15.0451 10.7763 15.1601 11.0013L15.5401 11.7413C16.1401 12.9213 17.0801 13.8612 18.2601 14.4613L19.0001 14.8413C19.2251 14.9563 19.2501 15.1663 19.2501 15.2513C19.2501 15.3363 19.2251 15.5463 19.0001 15.6613Z" fill="#8E8CFF"/>
</svg>
