<svg width="16" height="16" viewBox="0 0 16 16" fill="none" xmlns="http://www.w3.org/2000/svg">
<path fill-rule="evenodd" clip-rule="evenodd" d="M8.29214 14.149C8.19543 14.1801 8.08968 14.1726 7.99985 14.1293C7.9015 14.0819 7.8365 13.9992 7.81316 13.9092L7.49602 12.6866C7.38511 12.259 7.22363 11.8467 7.01566 11.4573C6.69277 10.8529 6.20422 10.388 5.75098 9.9974L4.79182 9.17088C4.64317 9.04278 4.56493 8.85075 4.58188 8.65477L5.12332 2.39299C5.15068 2.07665 5.41496 1.83464 5.7309 1.83464H8.82998C10.9209 1.83464 12.6825 3.28948 13.0204 5.24321L13.4908 7.96305C13.5555 8.33737 13.2676 8.6785 12.8899 8.6785H9.43579C8.78438 8.6785 8.28959 9.26293 8.39476 9.90483L8.83655 12.6012C8.89706 12.9705 8.87978 13.3485 8.78581 13.7107C8.73812 13.8946 8.59306 14.0524 8.38878 14.118L8.29214 14.149L8.44506 14.6251L8.29214 14.149ZM7.56575 15.0301C7.88748 15.1852 8.25817 15.2103 8.59799 15.1011L8.69464 15.0701L8.54171 14.594L8.69464 15.0701C9.21264 14.9036 9.6168 14.4898 9.75377 13.9618C9.8827 13.4648 9.90641 12.9463 9.82339 12.4395L9.38161 9.74314C9.37595 9.70863 9.40254 9.6785 9.43579 9.6785H12.8899C13.8894 9.6785 14.6463 8.77696 14.4761 7.79264L14.0058 5.0728C13.5805 2.61394 11.3808 0.834637 8.82998 0.834637H5.7309C4.89513 0.834637 4.19901 1.47447 4.12704 2.30685L3.5856 8.56863C3.541 9.08444 3.74681 9.59043 4.13903 9.92842L5.09819 10.7549C5.535 11.1314 5.90269 11.4962 6.13361 11.9285C6.30466 12.2487 6.43715 12.5873 6.52805 12.9377L6.84519 14.1603C6.94468 14.5438 7.21109 14.8592 7.56575 15.0301ZM1.97844 9.67804C2.24595 9.68958 2.47507 9.48834 2.49814 9.22158L3.14587 1.73056C3.18748 1.24937 2.80846 0.834637 2.32447 0.834637C1.86859 0.834637 1.5 1.20446 1.5 1.65948V9.1785C1.5 9.44626 1.71093 9.66649 1.97844 9.67804Z" fill="#A7A7A3"/>
</svg>
