<svg width="16" height="16" viewBox="0 0 16 16" fill="none" xmlns="http://www.w3.org/2000/svg">
<path fill-rule="evenodd" clip-rule="evenodd" d="M8.29214 1.85097C8.19543 1.81991 8.08968 1.82744 7.99985 1.87072C7.9015 1.91812 7.8365 2.00083 7.81316 2.09084L7.49602 3.31341C7.38511 3.74096 7.22363 4.15335 7.01566 4.54269C6.69277 5.14715 6.20422 5.61203 5.75098 6.0026L4.79182 6.82912C4.64317 6.95722 4.56493 7.14925 4.58188 7.34523L5.12332 13.607C5.15068 13.9233 5.41496 14.1654 5.7309 14.1654H8.82998C10.9209 14.1654 12.6825 12.7105 13.0204 10.7568L13.4908 8.03695C13.5555 7.66263 13.2676 7.3215 12.8899 7.3215H9.43579C8.78438 7.3215 8.28959 6.73707 8.39476 6.09517L8.83655 3.3988C8.89706 3.02945 8.87978 2.65152 8.78581 2.28926C8.73812 2.10542 8.59306 1.94764 8.38878 1.88202L8.29214 1.85097L8.44506 1.37493L8.29214 1.85097ZM7.56575 0.969861C7.88748 0.814829 8.25817 0.789727 8.59799 0.898894L8.69464 0.929941L8.54171 1.40598L8.69464 0.929941C9.21264 1.09635 9.6168 1.51016 9.75377 2.03817C9.8827 2.53521 9.90641 3.05374 9.82339 3.56049L9.38161 6.25686C9.37595 6.29137 9.40254 6.3215 9.43579 6.3215H12.8899C13.8894 6.3215 14.6463 7.22304 14.4761 8.20736L14.0058 10.9272C13.5805 13.3861 11.3808 15.1654 8.82998 15.1654H5.7309C4.89513 15.1654 4.19901 14.5255 4.12704 13.6932L3.5856 7.43137C3.541 6.91556 3.74681 6.40957 4.13903 6.07158L5.09819 5.24506C5.535 4.86865 5.90269 4.50381 6.13361 4.07152C6.30466 3.75131 6.43715 3.41274 6.52805 3.06231L6.84519 1.83974C6.94468 1.45621 7.21109 1.14076 7.56575 0.969861ZM1.97844 6.32196C2.24595 6.31042 2.47507 6.51166 2.49814 6.77842L3.14587 14.2694C3.18748 14.7506 2.80846 15.1654 2.32447 15.1654C1.86859 15.1654 1.5 14.7955 1.5 14.3405V6.8215C1.5 6.55374 1.71093 6.33351 1.97844 6.32196Z" fill="#A7A7A3"/>
</svg>
