<svg width="16" height="16" viewBox="0 0 16 16" fill="none" xmlns="http://www.w3.org/2000/svg">
<path fill-rule="evenodd" clip-rule="evenodd" d="M1.5 8.0013C1.5 6.98878 2.32081 6.16797 3.33333 6.16797C4.34586 6.16797 5.16667 6.98878 5.16667 8.0013C5.16667 9.01382 4.34586 9.83464 3.33333 9.83464C2.32081 9.83464 1.5 9.01382 1.5 8.0013ZM3.33333 7.16797C2.8731 7.16797 2.5 7.54106 2.5 8.0013C2.5 8.46154 2.8731 8.83464 3.33333 8.83464C3.79357 8.83464 4.16667 8.46154 4.16667 8.0013C4.16667 7.54106 3.79357 7.16797 3.33333 7.16797Z" fill="#A7A7A3"/>
<path fill-rule="evenodd" clip-rule="evenodd" d="M6.16667 8.0013C6.16667 6.98878 6.98748 6.16797 8 6.16797C9.01252 6.16797 9.83333 6.98878 9.83333 8.0013C9.83333 9.01382 9.01252 9.83464 8 9.83464C6.98748 9.83464 6.16667 9.01382 6.16667 8.0013ZM8 7.16797C7.53976 7.16797 7.16667 7.54106 7.16667 8.0013C7.16667 8.46154 7.53976 8.83464 8 8.83464C8.46024 8.83464 8.83333 8.46154 8.83333 8.0013C8.83333 7.54106 8.46024 7.16797 8 7.16797Z" fill="#A7A7A3"/>
<path fill-rule="evenodd" clip-rule="evenodd" d="M12.6667 6.16797C11.6541 6.16797 10.8333 6.98878 10.8333 8.0013C10.8333 9.01382 11.6541 9.83464 12.6667 9.83464C13.6792 9.83464 14.5 9.01382 14.5 8.0013C14.5 6.98878 13.6792 6.16797 12.6667 6.16797ZM11.8333 8.0013C11.8333 7.54106 12.2064 7.16797 12.6667 7.16797C13.1269 7.16797 13.5 7.54106 13.5 8.0013C13.5 8.46154 13.1269 8.83464 12.6667 8.83464C12.2064 8.83464 11.8333 8.46154 11.8333 8.0013Z" fill="#A7A7A3"/>
</svg>
