<svg width="378" height="377" viewBox="0 0 378 377" fill="none" xmlns="http://www.w3.org/2000/svg">
<path d="M241.421 0C296.649 0 341.421 44.7715 341.421 100V181C341.421 236.228 296.649 281 241.421 281H192.548C158.54 281 127.106 299.113 110.052 328.536L97.624 349.979C88.2628 366.13 71.0081 376.072 52.3403 376.072C23.4335 376.072 0 352.639 0 323.732V206.994C0 206.877 0.0941425 206.783 0.210449 206.783C0.326756 206.782 0.420898 206.688 0.420898 206.572V100C0.420898 44.7716 45.1925 7.21095e-05 100.421 0H241.421Z" fill="#605CFF"/>
<rect x="94" y="137" width="52" height="51" rx="25.5" fill="#131313"/>
<path d="M146 181.438C146 225.621 181.817 261.438 226 261.438H296.049C305.834 261.438 315.171 265.544 321.786 272.755C329.045 280.67 339.543 284.804 350.25 283.965L351.285 283.884C354.074 283.666 356.815 283.033 359.418 282.007C370.798 277.521 377.984 266.205 377.205 253.998L372.602 181.884V149.072C372.602 104.889 336.784 69.0723 292.602 69.0723H226C181.817 69.0723 146 104.889 146 149.072V181.438Z" fill="#FBFF5C"/>
<rect x="209" y="139.072" width="106" height="50" rx="25" fill="#131313"/>
</svg>
