<svg width="22" height="22" viewBox="0 0 22 22" fill="none" xmlns="http://www.w3.org/2000/svg">
<path fill-rule="evenodd" clip-rule="evenodd" d="M8.7932 2.93228C8.56997 3.12252 8.45834 3.21764 8.33913 3.29754C8.06587 3.48069 7.75899 3.60781 7.43625 3.67153C7.29546 3.69932 7.14928 3.71099 6.8569 3.73432C6.1223 3.79294 5.755 3.82225 5.44856 3.93049C4.7398 4.18083 4.1823 4.73833 3.93196 5.4471C3.82372 5.75353 3.79441 6.12083 3.73579 6.85544C3.71245 7.14781 3.70079 7.294 3.67299 7.43479C3.60928 7.75752 3.48216 8.06441 3.29901 8.33767C3.21911 8.45688 3.12399 8.5685 2.93375 8.79173C2.45576 9.35262 2.21676 9.63308 2.07661 9.92629C1.75246 10.6045 1.75246 11.3929 2.07661 12.0711C2.21676 12.3643 2.45575 12.6448 2.93374 13.2057C3.12397 13.4289 3.21911 13.5405 3.29901 13.6597C3.48216 13.933 3.60928 14.2399 3.67299 14.5626C3.70079 14.7034 3.71245 14.8496 3.73579 15.142C3.79441 15.8766 3.82372 16.2439 3.93196 16.5503C4.1823 17.2591 4.7398 17.8166 5.44856 18.0669C5.755 18.1751 6.1223 18.2045 6.8569 18.2631C7.14928 18.2864 7.29546 18.2981 7.43625 18.3259C7.75899 18.3896 8.06587 18.5167 8.33913 18.6999C8.45834 18.7798 8.56996 18.8749 8.7932 19.0651C9.35409 19.5431 9.63454 19.7821 9.92776 19.9222C10.606 20.2464 11.3944 20.2464 12.0726 19.9222C12.3658 19.7821 12.6462 19.5431 13.2071 19.0651C13.4304 18.8749 13.542 18.7798 13.6612 18.6999C13.9345 18.5167 14.2413 18.3896 14.5641 18.3259C14.7049 18.2981 14.851 18.2864 15.1434 18.2631C15.878 18.2045 16.2453 18.1751 16.5518 18.0669C17.2605 17.8166 17.818 17.2591 18.0684 16.5503C18.1766 16.2439 18.2059 15.8766 18.2645 15.142C18.2879 14.8496 18.2995 14.7034 18.3273 14.5626C18.391 14.2399 18.5182 13.933 18.7013 13.6597C18.7812 13.5405 18.8763 13.4289 19.0666 13.2057C19.5446 12.6448 19.7836 12.3643 19.9237 12.0711C20.2479 11.3929 20.2479 10.6045 19.9237 9.9263C19.7836 9.63308 19.5446 9.35263 19.0666 8.79173C18.8763 8.5685 18.7812 8.45688 18.7013 8.33767C18.5182 8.06441 18.391 7.75752 18.3273 7.43479C18.2995 7.294 18.2879 7.14781 18.2645 6.85544C18.2059 6.12083 18.1766 5.75353 18.0684 5.44709C17.818 4.73833 17.2605 4.18083 16.5518 3.93049C16.2453 3.82225 15.878 3.79294 15.1434 3.73432C14.851 3.71099 14.7049 3.69932 14.5641 3.67153C14.2413 3.60781 13.9345 3.48069 13.6612 3.29754C13.542 3.21764 13.4304 3.12252 13.2071 2.93228C12.6462 2.45429 12.3658 2.21529 12.0726 2.07515C11.3944 1.75099 10.606 1.75099 9.92776 2.07515C9.63454 2.21529 9.35409 2.45429 8.7932 2.93228ZM15.0092 9.03991C15.3005 8.74856 15.3005 8.27619 15.0092 7.98485C14.7178 7.6935 14.2455 7.6935 13.9541 7.98485L9.50807 12.4309L8.04617 10.969C7.75482 10.6777 7.28246 10.6777 6.99111 10.969C6.69976 11.2603 6.69976 11.7327 6.99111 12.0241L8.98054 14.0135C9.27189 14.3048 9.74426 14.3048 10.0356 14.0135L15.0092 9.03991Z" fill="#FBFF5C"/>
</svg>
